# This file uses centimeters as units for non-parametric coordinates.

mtllib Ship_OBJ.mtl
g default
v 0.269672 -1.951149 -0.195928
v 0.103006 -1.951149 -0.317019
v -0.103006 -1.951149 -0.317019
v -0.269672 -1.951149 -0.195928
v -0.333333 -1.951149 0.000000
v -0.269672 -1.951149 0.195928
v -0.103006 -1.951149 0.317019
v 0.103006 -1.951149 0.317019
v 0.269672 -1.951149 0.195928
v 0.333333 -1.951149 0.000000
v 0.539345 -1.951149 -0.391857
v 0.206011 -1.951149 -0.634038
v -0.206011 -1.951149 -0.634038
v -0.539345 -1.951149 -0.391857
v -0.666667 -1.951149 0.000000
v -0.539345 -1.951149 0.391857
v -0.206011 -1.951149 0.634038
v 0.206011 -1.951149 0.634038
v 0.539345 -1.951149 0.391857
v 0.666667 -1.951149 0.000000
v 0.809017 -1.951149 -0.587785
v 0.309017 -1.951149 -0.951057
v -0.309017 -1.951149 -0.951057
v -0.809017 -1.951149 -0.587785
v -1.000000 -1.951149 0.000000
v -0.809017 -1.951149 0.587785
v -0.309017 -1.951149 0.951057
v 0.309017 -1.951149 0.951057
v 0.809017 -1.951149 0.587785
v 1.000000 -1.951149 0.000000
v 0.892456 -1.721907 -0.648407
v 0.340888 -1.721907 -1.049145
v -0.340888 -1.721907 -1.049145
v -0.892456 -1.721907 -0.648407
v -1.103136 -1.721907 0.000000
v -0.892456 -1.721907 0.648407
v -0.340888 -1.721907 1.049145
v 0.340888 -1.721907 1.049144
v 0.892456 -1.721907 0.648407
v 1.103136 -1.721907 0.000000
v 0.892456 -1.291430 -0.648407
v 0.340888 -1.291430 -1.049145
v -0.340888 -1.291430 -1.049145
v -0.892456 -1.291430 -0.648407
v -1.103136 -1.291430 0.000000
v -0.892456 -1.291430 0.648407
v -0.340888 -1.291430 1.049145
v 0.340888 -1.291430 1.049144
v 0.892456 -1.291430 0.648407
v 1.103136 -1.291430 0.000000
v 0.892456 -0.860953 -0.648407
v 0.340888 -0.860953 -1.049145
v -0.340888 -0.860953 -1.049145
v -0.892456 -0.860953 -0.648407
v -1.103136 -0.860953 0.000000
v -0.892456 -0.860953 0.648407
v -0.340888 -0.860953 1.049145
v 0.340888 -0.860953 1.049144
v 0.892456 -0.860953 0.648407
v 1.103136 -0.860953 0.000000
v 0.892456 -0.430477 -0.648407
v 0.340888 -0.430477 -1.049145
v -0.340888 -0.430477 -1.049145
v -0.892456 -0.430477 -0.648407
v -1.103136 -0.430477 0.000000
v -0.892456 -0.430477 0.648407
v -0.340888 -0.430477 1.049145
v 0.340888 -0.430477 1.049144
v 0.892456 -0.430477 0.648407
v 1.103136 -0.430477 0.000000
v 0.892456 -0.000000 -0.648407
v 0.340888 -0.000000 -1.049145
v -0.340888 -0.000000 -1.049145
v -0.892456 -0.000000 -0.648407
v -1.103136 -0.000000 0.000000
v -0.892456 -0.000000 0.648407
v -0.340888 -0.000000 1.049145
v 0.340888 -0.000000 1.049144
v 0.892456 -0.000000 0.648407
v 1.103136 -0.000000 0.000000
v 0.892456 0.430477 -0.648407
v 0.340888 0.430477 -1.049145
v -0.340888 0.430477 -1.049145
v -0.892456 0.430477 -0.648407
v -1.103136 0.430477 0.000000
v -0.892456 0.430477 0.648407
v -0.340888 0.430477 1.049145
v 0.340888 0.430477 1.049144
v 0.892456 0.430477 0.648407
v 1.103136 0.430477 0.000000
v 0.892456 0.860953 -0.648407
v 0.340888 0.860953 -1.049145
v -0.340888 0.860953 -1.049145
v -0.892456 0.860953 -0.648407
v -1.103136 0.860953 0.000000
v -0.892456 0.860953 0.648407
v -0.340888 0.860953 1.049145
v 0.340888 0.860953 1.049144
v 0.892456 0.860953 0.648407
v 1.103136 0.860953 0.000000
v 0.892456 1.291430 -0.648407
v 0.340888 1.291430 -1.049145
v -0.340888 1.291430 -1.049145
v -0.892456 1.291430 -0.648407
v -1.103136 1.291430 0.000000
v -0.892456 1.291430 0.648407
v -0.340888 1.291430 1.049145
v 0.340888 1.291430 1.049144
v 0.892456 1.291430 0.648407
v 1.103136 1.291430 0.000000
v 0.892456 1.721907 -0.648407
v 0.340888 1.721907 -1.049145
v -0.340888 1.721907 -1.049145
v -0.892456 1.721907 -0.648407
v -1.103136 1.721907 0.000000
v -0.892456 1.721907 0.648407
v -0.340888 1.721907 1.049145
v 0.340888 1.721907 1.049144
v 0.892456 1.721907 0.648407
v 1.103136 1.721907 0.000000
v 0.809017 1.951149 -0.587785
v 0.309017 1.951149 -0.951057
v -0.309017 1.951149 -0.951057
v -0.809017 1.951149 -0.587785
v -1.000000 1.951149 0.000000
v -0.809017 1.951149 0.587785
v -0.309017 1.951149 0.951057
v 0.309017 1.951149 0.951057
v 0.809017 1.951149 0.587785
v 1.000000 1.951149 0.000000
v 0.539345 1.951149 -0.391857
v 0.206011 1.951149 -0.634038
v -0.206011 1.951149 -0.634038
v -0.539345 1.951149 -0.391857
v -0.666667 1.951149 0.000000
v -0.539345 1.951149 0.391857
v -0.206011 1.951149 0.634038
v 0.206011 1.951149 0.634038
v 0.539345 1.951149 0.391857
v 0.666667 1.951149 0.000000
v 0.269672 1.951149 -0.195928
v 0.103006 1.951149 -0.317019
v -0.103006 1.951149 -0.317019
v -0.269672 1.951149 -0.195928
v -0.333333 1.951149 0.000000
v -0.269672 1.951149 0.195928
v -0.103006 1.951149 0.317019
v 0.103006 1.951149 0.317019
v 0.269672 1.951149 0.195928
v 0.333333 1.951149 0.000000
v 0.000000 -1.951149 0.000000
v 0.269672 2.380839 -0.195928
v 0.103006 2.380839 -0.317019
v -0.103006 2.380839 -0.317019
v -0.269672 2.380839 -0.195928
v -0.333333 2.380839 0.000000
v -0.269672 2.380839 0.195928
v -0.103006 2.380839 0.317019
v 0.103006 2.380839 0.317019
v 0.269672 2.380839 0.195928
v 0.333333 2.380839 0.000000
v 0.451590 2.654703 -0.195928
v 0.326250 2.764556 -0.317019
v 0.171320 2.900342 -0.317019
v 0.045980 3.010194 -0.195928
v -0.001896 3.052154 0.000000
v 0.045980 3.010194 0.195928
v 0.171320 2.900342 0.317019
v 0.326250 2.764556 0.317019
v 0.451590 2.654703 0.195928
v 0.499466 2.612743 0.000000
v 0.835073 2.857514 -0.195928
v 0.832501 3.024161 -0.317019
v 0.829321 3.230148 -0.317019
v 0.826749 3.396795 -0.195928
v 0.825766 3.460448 0.000000
v 0.826749 3.396795 0.195928
v 0.829321 3.230148 0.317019
v 0.832501 3.024161 0.317019
v 0.835073 2.857514 0.195928
v 0.836056 2.793861 0.000000
v 1.085096 2.808501 -0.237587
v 1.087151 3.010595 -0.384424
v 1.089690 3.260396 -0.384424
v 1.091744 3.462489 -0.237587
v 1.092529 3.539682 0.000000
v 1.091744 3.462489 0.237587
v 1.089690 3.260396 0.384424
v 1.087151 3.010595 0.384424
v 1.085096 2.808501 0.237587
v 1.084312 2.731308 0.000000
v 1.426139 2.805035 -0.237587
v 1.428193 3.007128 -0.384424
v 1.430732 3.256929 -0.384424
v 1.432787 3.459022 -0.237587
v 1.433571 3.536215 0.000000
v 1.432787 3.459022 0.237587
v 1.430732 3.256929 0.384424
v 1.428193 3.007128 0.384424
v 1.426139 2.805035 0.237587
v 1.425355 2.727842 0.000000
v -0.279681 -1.059553 1.210793
v 0.279681 -1.059553 1.210793
v 0.279681 -0.706369 1.210793
v -0.279681 -0.706369 1.210793
v 0.279681 -0.353184 1.210793
v -0.279681 -0.353184 1.210793
v 0.279681 -0.000000 1.210793
v -0.279681 -0.000000 1.210793
v 0.279681 0.353184 1.210793
v -0.279681 0.353184 1.210793
v 0.279681 0.706369 1.210793
v -0.279681 0.706369 1.210793
v 0.279681 1.059552 1.210793
v -0.279681 1.059552 1.210793
vt -0.450593 0.000000
vt 1.481887 0.000000
vt 1.286912 0.000000
vt -0.311148 0.000000
vt -0.347508 0.000000
vt -0.180366 0.000000
vt -0.188063 0.000000
vt -0.051127 0.000000
vt -0.030798 0.000000
vt 0.082392 0.000000
vt 0.132361 0.000000
vt 0.229847 0.000000
vt 0.311903 0.000000
vt 0.418053 0.000000
vt 0.523462 0.000000
vt 0.779262 0.000000
vt 1.050900 0.000000
vt 1.455957 0.000000
vt 1.256049 0.000000
vt -0.362842 0.000000
vt -0.191421 0.000000
vt -0.022012 0.000000
vt 0.152760 0.000000
vt 0.341208 0.000000
vt 0.552159 0.000000
vt 0.787706 0.000000
vt 1.030755 0.000000
vt 1.450939 0.041750
vt 1.250468 0.041750
vt -0.365928 0.041750
vt -0.192107 0.041750
vt -0.020225 0.041750
vt 0.156807 0.041750
vt 0.346730 0.041750
vt 0.557158 0.041750
vt 0.789083 0.041750
vt 1.027394 0.041750
vt 1.450939 0.120149
vt 1.250468 0.120149
vt -0.365928 0.120149
vt -0.192107 0.120149
vt -0.020225 0.120149
vt 0.156807 0.120149
vt 0.346730 0.120149
vt 0.557158 0.120149
vt 0.789083 0.120149
vt 1.027394 0.120149
vt 1.450939 0.198548
vt 1.250468 0.198548
vt -0.365928 0.198548
vt -0.192107 0.198548
vt -0.020225 0.198548
vt 0.156807 0.198548
vt 0.346730 0.198548
vt 0.380638 0.162379
vt 0.532166 0.162379
vt 0.532166 0.226702
vt 0.380638 0.226702
vt 0.789083 0.198548
vt 0.557158 0.198548
vt 1.027394 0.198548
vt 1.450939 0.276948
vt 1.250468 0.276948
vt -0.365928 0.276948
vt -0.192107 0.276948
vt -0.020225 0.276948
vt 0.156807 0.276948
vt 0.346730 0.276948
vt 0.532166 0.291024
vt 0.380638 0.291024
vt 0.789083 0.276948
vt 0.557158 0.276948
vt 1.027394 0.276948
vt 1.450939 0.355347
vt 1.250468 0.355347
vt -0.365928 0.355347
vt -0.192107 0.355347
vt -0.020225 0.355347
vt 0.156807 0.355347
vt 0.346730 0.355347
vt 0.532166 0.355347
vt 0.380638 0.355347
vt 0.789083 0.355347
vt 0.557158 0.355347
vt 1.027394 0.355347
vt 1.450939 0.433746
vt 1.250468 0.433746
vt -0.365928 0.433746
vt -0.192107 0.433746
vt -0.020225 0.433746
vt 0.156807 0.433746
vt 0.346730 0.433746
vt 0.532166 0.419669
vt 0.380638 0.419669
vt 0.789083 0.433746
vt 0.557158 0.433746
vt 1.027394 0.433746
vt 1.450939 0.512145
vt 1.250468 0.512145
vt -0.365928 0.512145
vt -0.192107 0.512145
vt -0.020225 0.512145
vt 0.156807 0.512145
vt 0.346730 0.512145
vt 0.532166 0.483992
vt 0.380638 0.483992
vt 0.789083 0.512145
vt 0.557158 0.512145
vt 1.027394 0.512145
vt 1.450939 0.590544
vt 1.250468 0.590544
vt -0.365928 0.590544
vt -0.192107 0.590544
vt -0.020225 0.590544
vt 0.156807 0.590544
vt 0.346730 0.590544
vt 0.532166 0.548314
vt 0.380638 0.548314
vt 0.789083 0.590544
vt 0.557158 0.590544
vt 1.027394 0.590544
vt 1.450939 0.668944
vt 1.250468 0.668944
vt -0.365928 0.668944
vt -0.192107 0.668944
vt -0.020225 0.668944
vt 0.156807 0.668944
vt 0.346730 0.668944
vt 0.557158 0.668944
vt 0.789083 0.668944
vt 1.027394 0.668944
vt 1.455957 0.710694
vt 1.256049 0.710694
vt -0.362842 0.710694
vt -0.191421 0.710694
vt -0.022012 0.710694
vt 0.152760 0.710694
vt 0.341208 0.710694
vt 0.552159 0.710694
vt 0.787706 0.710694
vt 1.030755 0.710694
vt 1.286912 0.710694
vt -0.347508 0.710694
vt -0.188063 0.710694
vt -0.030798 0.710694
vt 0.132361 0.710694
vt 0.311903 0.710694
vt 0.523462 0.710694
vt 0.779262 0.710694
vt 1.050900 0.710694
vt -0.450593 0.710694
vt 1.385154 0.710694
vt -0.311148 0.710694
vt -0.180366 0.710694
vt -0.051127 0.710694
vt 0.082392 0.710694
vt 0.229847 0.710694
vt 0.418053 0.710694
vt 0.734605 0.710694
vt 1.142680 0.710694
vt -0.144790 0.000000
vt -0.450593 0.788949
vt 1.385154 0.788949
vt -0.311148 0.788949
vt -0.180366 0.788949
vt -0.051127 0.788949
vt 0.082392 0.788949
vt 0.229847 0.788949
vt 0.418053 0.788949
vt 0.734605 0.788949
vt 1.142680 0.788949
vt 1.377608 0.858833
vt 1.244595 0.838826
vt 1.495149 0.883562
vt -0.370476 0.903569
vt -0.143361 0.911210
vt 0.244418 0.903569
vt 0.508255 0.883562
vt 0.690506 0.858833
vt 0.878381 0.838826
vt 1.075553 0.831184
vt 1.171165 0.906112
vt 1.124744 0.875762
vt 1.171834 0.943627
vt 1.126154 0.973977
vt 1.038787 0.985570
vt 0.945196 0.973977
vt 0.891263 0.943627
vt 0.891742 0.906112
vt 0.945864 0.875762
vt 1.038199 0.864170
vt 1.148796 0.903642
vt 1.106104 0.866836
vt 1.148444 0.949136
vt 1.105398 0.985942
vt 1.027706 1.000000
vt 0.946681 0.985942
vt 0.899030 0.949136
vt 0.898770 0.903642
vt 0.946303 0.866836
vt 1.027952 0.852778
vt 1.112379 0.903010
vt 1.078766 0.866205
vt 1.112172 0.948505
vt 1.078370 0.985310
vt 1.020288 0.999369
vt 0.960865 0.985310
vt 0.925085 0.948505
vt 0.924940 0.903010
vt 0.960660 0.866205
vt 1.020420 0.852146
vt 1.549407 0.000000
vt 1.688852 0.000000
vt 1.652493 0.000000
vt 1.637158 0.000000
vt 1.634072 0.041750
vt 1.634072 0.120149
vt 1.634072 0.198548
vt 1.634072 0.276948
vt 1.634072 0.355347
vt 1.634072 0.433746
vt 1.634072 0.512145
vt 1.634072 0.590544
vt 1.634072 0.668944
vt 1.637158 0.710694
vt 1.481887 0.710694
vt 1.652493 0.710694
vt 1.688852 0.710694
vt 1.385154 0.000000
vt 1.855210 0.000000
vt 0.734605 0.000000
vt 1.142680 0.000000
vt 1.549407 0.710694
vt 1.549407 0.788949
vt 1.688852 0.788949
vt 1.819634 0.788949
vt 1.629524 0.903569
vt 1.856639 0.911210
vt 2.244418 0.903569
vt 2.945196 0.973977
vn 0.000000 -1.000000 0.000000
vn 0.000000 -1.000000 0.000000
vn 0.000000 -1.000000 -0.000000
vn 0.000000 -1.000000 0.000000
vn 0.000000 -1.000000 0.000000
vn 0.000000 -1.000000 0.000000
vn 0.000000 -1.000000 0.000000
vn 0.000000 -1.000000 0.000000
vn 0.000000 -1.000000 0.000000
vn 0.000000 -1.000000 0.000000
vn 0.000000 -1.000000 0.000000
vn 0.000000 -1.000000 -0.000000
vn 0.000000 -1.000000 -0.000000
vn 0.000000 -1.000000 -0.000000
vn 0.000000 -1.000000 -0.000000
vn 0.000000 -1.000000 0.000000
vn 0.000000 -1.000000 -0.000000
vn 0.000000 -1.000000 0.000000
vn 0.000000 -1.000000 0.000000
vn 0.000000 -1.000000 0.000000
vn 0.000000 -1.000000 -0.000000
vn 0.000000 -1.000000 0.000000
vn 0.000000 -1.000000 0.000000
vn 0.000000 -1.000000 0.000000
vn 0.000000 -1.000000 0.000000
vn 0.000000 -1.000000 -0.000000
vn 0.000000 -1.000000 -0.000000
vn 0.000000 -1.000000 0.000000
vn 0.000000 -1.000000 0.000000
vn 0.000000 -1.000000 0.000000
vn 0.540395 -0.393380 -0.743791
vn 0.540395 -0.393380 -0.743791
vn 0.582414 -0.134877 -0.801625
vn 0.582414 -0.134877 -0.801625
vn 0.000000 -0.393380 -0.919376
vn 0.000000 -0.393380 -0.919376
vn -0.000000 -0.134877 -0.990862
vn -0.000000 -0.134877 -0.990862
vn -0.540396 -0.393380 -0.743791
vn -0.540396 -0.393380 -0.743791
vn -0.582415 -0.134877 -0.801624
vn -0.582415 -0.134877 -0.801624
vn -0.874379 -0.393380 -0.284102
vn -0.874379 -0.393380 -0.284102
vn -0.942366 -0.134877 -0.306193
vn -0.942366 -0.134877 -0.306193
vn -0.874378 -0.393381 0.284103
vn -0.874378 -0.393381 0.284103
vn -0.942366 -0.134877 0.306193
vn -0.942366 -0.134877 0.306193
vn -0.540395 -0.393380 0.743791
vn -0.540395 -0.393380 0.743791
vn -0.582414 -0.134877 0.801625
vn -0.582414 -0.134877 0.801625
vn 0.000000 -0.393380 0.919376
vn 0.000000 -0.393380 0.919376
vn 0.000000 -0.134877 0.990862
vn 0.000000 -0.134877 0.990862
vn 0.540396 -0.393380 0.743791
vn 0.540396 -0.393380 0.743791
vn 0.582414 -0.134877 0.801624
vn 0.582414 -0.134877 0.801624
vn 0.874378 -0.393380 0.284103
vn 0.874378 -0.393380 0.284103
vn 0.942366 -0.134877 0.306193
vn 0.942366 -0.134877 0.306193
vn 0.874379 -0.393380 -0.284103
vn 0.874379 -0.393380 -0.284103
vn 0.942366 -0.134877 -0.306193
vn 0.942366 -0.134877 -0.306193
vn 0.587785 0.000000 -0.809017
vn 0.587785 0.000000 -0.809017
vn -0.000000 0.000000 -1.000000
vn -0.000000 0.000000 -1.000000
vn -0.587785 0.000000 -0.809017
vn -0.587785 0.000000 -0.809017
vn -0.951057 0.000000 -0.309017
vn -0.951057 0.000000 -0.309017
vn -0.951057 0.000000 0.309017
vn -0.951057 0.000000 0.309017
vn -0.587785 0.000000 0.809017
vn -0.587785 0.000000 0.809017
vn 0.000000 0.000000 1.000000
vn 0.000000 0.000000 1.000000
vn 0.587785 0.000000 0.809017
vn 0.587785 0.000000 0.809017
vn 0.951057 0.000000 0.309017
vn 0.951057 0.000000 0.309017
vn 0.951057 0.000000 -0.309017
vn 0.951057 0.000000 -0.309017
vn 0.587785 0.000000 -0.809017
vn 0.587785 0.000000 -0.809017
vn -0.000000 0.000000 -1.000000
vn -0.000000 0.000000 -1.000000
vn -0.587785 0.000000 -0.809017
vn -0.587785 0.000000 -0.809017
vn -0.951057 0.000000 -0.309017
vn -0.951057 0.000000 -0.309017
vn -0.951057 0.000000 0.309017
vn -0.951057 0.000000 0.309017
vn -0.587785 0.000000 0.809017
vn -0.587785 0.000000 0.809017
vn 0.000000 0.000000 1.000000
vn 0.000000 0.000000 1.000000
vn 0.000000 0.000000 1.000000
vn 0.000000 0.000000 1.000000
vn 0.587785 0.000000 0.809017
vn 0.587785 0.000000 0.809017
vn 0.951057 0.000000 0.309017
vn 0.951057 0.000000 0.309017
vn 0.951057 0.000000 -0.309017
vn 0.951057 0.000000 -0.309017
vn 0.587785 0.000000 -0.809017
vn 0.587785 0.000000 -0.809017
vn -0.000000 0.000000 -1.000000
vn -0.000000 0.000000 -1.000000
vn -0.587785 0.000000 -0.809017
vn -0.587785 0.000000 -0.809017
vn -0.951057 0.000000 -0.309017
vn -0.951057 0.000000 -0.309017
vn -0.951057 0.000000 0.309017
vn -0.951057 0.000000 0.309017
vn -0.587785 0.000000 0.809017
vn -0.587785 0.000000 0.809017
vn 0.000000 0.000000 1.000000
vn 0.000000 0.000000 1.000000
vn 0.587785 0.000000 0.809017
vn 0.587785 0.000000 0.809017
vn 0.951057 0.000000 0.309017
vn 0.951057 0.000000 0.309017
vn 0.951057 0.000000 -0.309017
vn 0.951057 0.000000 -0.309017
vn 0.587785 0.000000 -0.809017
vn 0.587785 0.000000 -0.809017
vn -0.000000 0.000000 -1.000000
vn -0.000000 0.000000 -1.000000
vn -0.587785 0.000000 -0.809017
vn -0.587785 0.000000 -0.809017
vn -0.951057 0.000000 -0.309017
vn -0.951057 0.000000 -0.309017
vn -0.951057 0.000000 0.309017
vn -0.951057 0.000000 0.309017
vn -0.587785 0.000000 0.809017
vn -0.587785 0.000000 0.809017
vn 0.000000 0.000000 1.000000
vn 0.000000 0.000000 1.000000
vn 0.587785 0.000000 0.809017
vn 0.587785 0.000000 0.809017
vn 0.951057 0.000000 0.309017
vn 0.951057 0.000000 0.309017
vn 0.951057 0.000000 -0.309017
vn 0.951057 0.000000 -0.309017
vn 0.587785 0.000000 -0.809017
vn 0.587785 0.000000 -0.809017
vn -0.000000 0.000000 -1.000000
vn -0.000000 0.000000 -1.000000
vn -0.587785 0.000000 -0.809017
vn -0.587785 0.000000 -0.809017
vn -0.951057 0.000000 -0.309017
vn -0.951057 0.000000 -0.309017
vn -0.951057 0.000000 0.309017
vn -0.951057 0.000000 0.309017
vn -0.587785 0.000000 0.809017
vn -0.587785 0.000000 0.809017
vn 0.000000 0.000000 1.000000
vn 0.000000 0.000000 1.000000
vn 0.587785 0.000000 0.809017
vn 0.587785 0.000000 0.809017
vn 0.951057 0.000000 0.309017
vn 0.951057 0.000000 0.309017
vn 0.951057 0.000000 -0.309017
vn 0.951057 0.000000 -0.309017
vn 0.587785 0.000000 -0.809017
vn 0.587785 0.000000 -0.809017
vn -0.000000 0.000000 -1.000000
vn -0.000000 0.000000 -1.000000
vn -0.587785 -0.000000 -0.809017
vn -0.587785 -0.000000 -0.809017
vn -0.951057 -0.000000 -0.309017
vn -0.951057 -0.000000 -0.309017
vn -0.951057 0.000000 0.309017
vn -0.951057 0.000000 0.309017
vn -0.587785 0.000000 0.809017
vn -0.587785 0.000000 0.809017
vn 0.000000 0.000000 1.000000
vn 0.000000 0.000000 1.000000
vn 0.587785 0.000000 0.809017
vn 0.587785 0.000000 0.809017
vn 0.951057 0.000000 0.309017
vn 0.951057 0.000000 0.309017
vn 0.951057 0.000000 -0.309017
vn 0.951057 0.000000 -0.309017
vn 0.587785 0.000000 -0.809017
vn 0.587785 0.000000 -0.809017
vn -0.000000 0.000000 -1.000000
vn -0.000000 0.000000 -1.000000
vn -0.587785 -0.000000 -0.809017
vn -0.587785 -0.000000 -0.809017
vn -0.951057 -0.000000 -0.309017
vn -0.951057 -0.000000 -0.309017
vn -0.951057 0.000000 0.309017
vn -0.951057 0.000000 0.309017
vn -0.587785 0.000000 0.809017
vn -0.587785 0.000000 0.809017
vn 0.000000 0.000000 1.000000
vn 0.000000 0.000000 1.000000
vn 0.587785 0.000000 0.809017
vn 0.587785 0.000000 0.809017
vn 0.951057 0.000000 0.309017
vn 0.951057 0.000000 0.309017
vn 0.951057 0.000000 -0.309017
vn 0.951057 0.000000 -0.309017
vn 0.582414 0.134877 -0.801625
vn 0.582414 0.134877 -0.801625
vn -0.000000 0.134877 -0.990862
vn -0.000000 0.134877 -0.990862
vn -0.582415 0.134877 -0.801624
vn -0.582415 0.134877 -0.801624
vn -0.942366 0.134877 -0.306193
vn -0.942366 0.134877 -0.306193
vn -0.942366 0.134877 0.306193
vn -0.942366 0.134877 0.306193
vn -0.582414 0.134877 0.801625
vn -0.582414 0.134877 0.801625
vn 0.000000 0.000000 1.000000
vn 0.000000 0.000000 1.000000
vn 0.000000 0.134877 0.990862
vn 0.000000 0.134877 0.990862
vn 0.582414 0.134877 0.801624
vn 0.582414 0.134877 0.801624
vn 0.942366 0.134877 0.306193
vn 0.942366 0.134877 0.306193
vn 0.942366 0.134877 -0.306193
vn 0.942366 0.134877 -0.306193
vn 0.540396 0.393380 -0.743791
vn 0.540396 0.393380 -0.743791
vn 0.000000 0.393380 -0.919376
vn 0.000000 0.393380 -0.919376
vn -0.540396 0.393380 -0.743790
vn -0.540396 0.393380 -0.743790
vn -0.874379 0.393380 -0.284103
vn -0.874379 0.393380 -0.284103
vn -0.874378 0.393380 0.284103
vn -0.874378 0.393380 0.284103
vn -0.540395 0.393380 0.743791
vn -0.540395 0.393380 0.743791
vn 0.000000 0.393380 0.919376
vn 0.000000 0.393380 0.919376
vn 0.540395 0.393380 0.743791
vn 0.540395 0.393380 0.743791
vn 0.874378 0.393380 0.284103
vn 0.874378 0.393380 0.284103
vn 0.874379 0.393380 -0.284103
vn 0.874379 0.393380 -0.284103
vn 0.000000 1.000000 0.000000
vn 0.000000 1.000000 0.000000
vn 0.000000 1.000000 0.000000
vn 0.000000 1.000000 0.000000
vn 0.000000 1.000000 -0.000000
vn 0.000000 1.000000 -0.000000
vn 0.000000 1.000000 -0.000000
vn 0.000000 1.000000 -0.000000
vn 0.000000 1.000000 0.000000
vn 0.000000 1.000000 0.000000
vn 0.000000 1.000000 -0.000000
vn 0.000000 1.000000 -0.000000
vn 0.000000 1.000000 -0.000000
vn 0.000000 1.000000 -0.000000
vn 0.000000 1.000000 0.000000
vn 0.000000 1.000000 0.000000
vn 0.000000 1.000000 0.000000
vn 0.000000 1.000000 0.000000
vn 0.000000 1.000000 0.000000
vn 0.000000 1.000000 0.000000
vn 0.000000 1.000000 0.000000
vn 0.000000 1.000000 0.000000
vn 0.000000 1.000000 0.000000
vn 0.000000 1.000000 0.000000
vn 0.000000 1.000000 0.000000
vn 0.000000 1.000000 0.000000
vn 0.000000 1.000000 0.000000
vn 0.000000 1.000000 0.000000
vn 0.000000 1.000000 0.000000
vn 0.000000 1.000000 0.000000
vn 0.000000 -1.000000 0.000000
vn 0.587785 0.000000 -0.809017
vn 0.587785 0.000000 -0.809017
vn 0.587785 0.000000 -0.809017
vn 0.587785 0.000000 -0.809017
vn -0.000000 0.000000 -1.000000
vn -0.000000 0.000000 -1.000000
vn -0.000000 0.000000 -1.000000
vn -0.000000 0.000000 -1.000000
vn -0.587785 0.000000 -0.809017
vn -0.587785 0.000000 -0.809017
vn -0.587785 0.000000 -0.809017
vn -0.587785 0.000000 -0.809017
vn -0.951057 0.000000 -0.309017
vn -0.951057 0.000000 -0.309017
vn -0.951057 0.000000 -0.309017
vn -0.951057 0.000000 -0.309017
vn -0.951057 0.000000 0.309017
vn -0.951057 0.000000 0.309017
vn -0.951057 0.000000 0.309017
vn -0.951057 0.000000 0.309017
vn -0.587785 0.000000 0.809017
vn -0.587785 0.000000 0.809017
vn -0.587785 0.000000 0.809017
vn -0.587785 0.000000 0.809017
vn 0.000000 0.000000 1.000000
vn 0.000000 0.000000 1.000000
vn 0.000000 0.000000 1.000000
vn 0.000000 0.000000 1.000000
vn 0.587785 0.000000 0.809017
vn 0.587785 0.000000 0.809017
vn 0.587785 0.000000 0.809017
vn 0.587785 0.000000 0.809017
vn 0.951057 0.000000 0.309017
vn 0.951057 0.000000 0.309017
vn 0.951057 0.000000 0.309017
vn 0.951057 0.000000 0.309017
vn 0.951057 0.000000 -0.309017
vn 0.951057 0.000000 -0.309017
vn 0.951057 0.000000 -0.309017
vn 0.951057 0.000000 -0.309017
vn 0.528111 -0.325390 -0.784360
vn 0.528111 -0.325390 -0.784360
vn 0.528111 -0.325390 -0.784360
vn 0.528111 -0.325390 -0.784360
vn -0.000000 0.000000 -1.000000
vn -0.000000 0.000000 -1.000000
vn -0.000000 0.000000 -1.000000
vn -0.000000 0.000000 -1.000000
vn -0.547708 0.281268 -0.787975
vn -0.547708 0.281268 -0.787975
vn -0.547708 0.281268 -0.787975
vn -0.547708 0.281268 -0.787975
vn -0.856959 0.426342 -0.289574
vn -0.856959 0.426342 -0.289574
vn -0.856959 0.426342 -0.289574
vn -0.856959 0.426342 -0.289574
vn -0.856959 0.426342 0.289574
vn -0.856959 0.426342 0.289574
vn -0.856959 0.426342 0.289574
vn -0.856959 0.426342 0.289574
vn -0.547708 0.281268 0.787975
vn -0.547708 0.281267 0.787975
vn -0.547708 0.281267 0.787975
vn -0.547708 0.281268 0.787975
vn 0.000000 0.000000 1.000000
vn 0.000000 0.000000 1.000000
vn 0.000000 0.000000 1.000000
vn 0.000000 0.000000 1.000000
vn 0.528111 -0.325390 0.784360
vn 0.528111 -0.325390 0.784360
vn 0.528111 -0.325390 0.784360
vn 0.528111 -0.325390 0.784360
vn 0.790085 -0.543706 0.283107
vn 0.790085 -0.543706 0.283107
vn 0.790085 -0.543706 0.283107
vn 0.790085 -0.543706 0.283107
vn 0.790085 -0.543706 -0.283106
vn 0.790085 -0.543706 -0.283106
vn 0.790085 -0.543706 -0.283106
vn 0.790085 -0.543706 -0.283106
vn 0.287155 -0.552515 -0.782477
vn 0.287155 -0.552515 -0.782476
vn 0.287155 -0.552515 -0.782476
vn 0.287155 -0.552515 -0.782476
vn -0.000000 0.000000 -1.000000
vn -0.000000 0.000000 -1.000000
vn -0.000000 0.000000 -1.000000
vn -0.000000 0.000000 -1.000000
vn -0.277438 0.557182 -0.782672
vn -0.277438 0.557182 -0.782672
vn -0.277438 0.557182 -0.782673
vn -0.277438 0.557182 -0.782672
vn -0.424732 0.859425 -0.284591
vn -0.424732 0.859425 -0.284591
vn -0.424732 0.859425 -0.284591
vn -0.424732 0.859425 -0.284591
vn -0.424732 0.859425 0.284591
vn -0.424732 0.859425 0.284591
vn -0.424732 0.859425 0.284591
vn -0.424732 0.859425 0.284591
vn -0.277438 0.557182 0.782673
vn -0.277438 0.557182 0.782673
vn -0.277438 0.557182 0.782673
vn -0.277438 0.557182 0.782673
vn 0.000000 0.000000 1.000000
vn 0.000000 0.000000 1.000000
vn 0.000000 0.000000 1.000000
vn 0.000000 0.000000 1.000000
vn 0.287155 -0.552515 0.782476
vn 0.287155 -0.552515 0.782476
vn 0.287155 -0.552515 0.782476
vn 0.287155 -0.552515 0.782476
vn 0.451074 -0.846008 0.284260
vn 0.451074 -0.846008 0.284260
vn 0.451074 -0.846008 0.284260
vn 0.451074 -0.846008 0.284260
vn 0.451074 -0.846008 -0.284260
vn 0.451074 -0.846008 -0.284260
vn 0.451074 -0.846008 -0.284260
vn 0.451074 -0.846008 -0.284260
vn -0.240444 -0.570793 -0.785100
vn -0.240444 -0.570793 -0.785100
vn -0.240444 -0.570793 -0.785100
vn -0.240444 -0.570793 -0.785100
vn -0.253216 -0.000356 -0.967410
vn -0.253216 -0.000356 -0.967410
vn -0.253216 -0.000356 -0.967410
vn -0.253216 -0.000356 -0.967410
vn -0.265412 0.566490 -0.780157
vn -0.265412 0.566490 -0.780157
vn -0.265412 0.566490 -0.780157
vn -0.265412 0.566490 -0.780157
vn -0.272676 0.914988 -0.297397
vn -0.272676 0.914988 -0.297397
vn -0.272676 0.914988 -0.297397
vn -0.272676 0.914988 -0.297397
vn -0.272676 0.914988 0.297397
vn -0.272676 0.914988 0.297397
vn -0.272676 0.914988 0.297397
vn -0.272676 0.914988 0.297397
vn -0.265412 0.566490 0.780157
vn -0.265412 0.566490 0.780157
vn -0.265412 0.566490 0.780157
vn -0.265412 0.566490 0.780157
vn -0.253216 -0.000356 0.967410
vn -0.253216 -0.000356 0.967410
vn -0.253216 -0.000356 0.967410
vn -0.253216 -0.000356 0.967410
vn -0.240445 -0.570793 0.785100
vn -0.240445 -0.570793 0.785100
vn -0.240445 -0.570793 0.785100
vn -0.240445 -0.570793 0.785100
vn -0.232248 -0.925090 0.300449
vn -0.232248 -0.925090 0.300449
vn -0.232248 -0.925090 0.300449
vn -0.232248 -0.925090 0.300449
vn -0.232248 -0.925090 -0.300449
vn -0.232248 -0.925090 -0.300449
vn -0.232248 -0.925090 -0.300449
vn -0.232248 -0.925090 -0.300449
vn -0.005975 -0.587754 -0.809017
vn -0.005975 -0.587754 -0.809017
vn -0.005975 -0.587754 -0.809017
vn -0.005975 -0.587754 -0.809017
vn -0.000000 0.000000 -1.000000
vn -0.000000 0.000000 -1.000000
vn -0.000000 0.000000 -1.000000
vn -0.000000 0.000000 -1.000000
vn 0.005974 0.587755 -0.809017
vn 0.005974 0.587755 -0.809017
vn 0.005974 0.587755 -0.809017
vn 0.005974 0.587755 -0.809017
vn 0.009668 0.951007 -0.309018
vn 0.009668 0.951007 -0.309018
vn 0.009668 0.951007 -0.309018
vn 0.009668 0.951007 -0.309018
vn 0.009668 0.951007 0.309018
vn 0.009668 0.951007 0.309018
vn 0.009668 0.951007 0.309018
vn 0.009668 0.951007 0.309018
vn 0.005975 0.587756 0.809016
vn 0.005975 0.587756 0.809017
vn 0.005975 0.587756 0.809016
vn 0.005975 0.587756 0.809016
vn -0.000000 0.000000 1.000000
vn -0.000000 0.000000 1.000000
vn -0.000000 0.000000 1.000000
vn -0.000000 0.000000 1.000000
vn -0.005975 -0.587754 0.809017
vn -0.005975 -0.587754 0.809017
vn -0.005975 -0.587754 0.809017
vn -0.005975 -0.587754 0.809017
vn -0.009665 -0.951007 0.309017
vn -0.009665 -0.951007 0.309017
vn -0.009665 -0.951007 0.309017
vn -0.009665 -0.951007 0.309017
vn -0.009665 -0.951007 -0.309017
vn -0.009665 -0.951007 -0.309017
vn -0.009665 -0.951007 -0.309017
vn -0.009665 -0.951007 -0.309017
vn 0.000000 -0.571882 0.820336
vn 0.000000 -0.571882 0.820336
vn 0.000000 -0.571882 0.820336
vn 0.000000 -0.571882 0.820336
vn 0.935206 0.000000 0.354105
vn 0.935206 0.000000 0.354105
vn 0.935206 0.000000 0.354105
vn 0.935206 0.000000 0.354105
vn -0.935206 0.000000 0.354105
vn -0.935206 0.000000 0.354105
vn -0.935206 0.000000 0.354105
vn -0.935206 0.000000 0.354105
vn 0.935206 0.000000 0.354105
vn 0.935206 0.000000 0.354105
vn 0.935206 0.000000 0.354105
vn 0.935206 0.000000 0.354105
vn -0.935206 0.000000 0.354105
vn -0.935206 0.000000 0.354105
vn -0.935206 0.000000 0.354105
vn -0.935206 0.000000 0.354105
vn 0.935206 0.000000 0.354105
vn 0.935206 0.000000 0.354105
vn 0.935206 0.000000 0.354105
vn 0.935206 0.000000 0.354105
vn -0.935206 0.000000 0.354105
vn -0.935206 0.000000 0.354105
vn -0.935206 0.000000 0.354105
vn -0.935206 0.000000 0.354105
vn 0.935206 0.000000 0.354105
vn 0.935206 0.000000 0.354105
vn 0.935206 0.000000 0.354105
vn 0.935206 0.000000 0.354105
vn -0.935206 0.000000 0.354105
vn -0.935206 0.000000 0.354105
vn -0.935206 0.000000 0.354105
vn -0.935206 0.000000 0.354105
vn 0.935206 0.000000 0.354105
vn 0.935206 0.000000 0.354105
vn 0.935206 0.000000 0.354105
vn 0.935206 0.000000 0.354105
vn -0.935206 0.000000 0.354105
vn -0.935206 0.000000 0.354105
vn -0.935206 0.000000 0.354105
vn -0.935206 0.000000 0.354105
vn 0.935206 0.000000 0.354105
vn 0.935206 0.000000 0.354105
vn 0.935206 0.000000 0.354105
vn 0.935206 0.000000 0.354105
vn 0.000000 0.571882 0.820336
vn 0.000000 0.571882 0.820336
vn 0.000000 0.571882 0.820336
vn 0.000000 0.571882 0.820336
vn -0.935206 0.000000 0.354105
vn -0.935206 0.000000 0.354105
vn -0.935206 0.000000 0.354105
vn -0.935206 0.000000 0.354105
s 1
g pCylinder1
usemtl initialShadingGroup
f 1/229/1 2/212/2 12/2/3 11/3/4
f 2/212/2 3/213/5 13/214/6 12/2/3
f 3/4/5 4/6/7 14/7/8 13/5/6
f 4/6/7 5/8/9 15/9/10 14/7/8
f 5/8/9 6/10/11 16/11/12 15/9/10
f 6/10/11 7/12/13 17/13/14 16/11/12
f 7/12/13 8/14/15 18/15/16 17/13/14
f 8/14/15 9/231/17 19/16/18 18/15/16
f 9/231/17 10/232/19 20/17/20 19/16/18
f 10/232/19 1/229/1 11/3/4 20/17/20
f 11/3/4 12/2/3 22/18/21 21/19/22
f 12/2/3 13/214/6 23/215/23 22/18/21
f 13/5/6 14/7/8 24/21/24 23/20/23
f 14/7/8 15/9/10 25/22/25 24/21/24
f 15/9/10 16/11/12 26/23/26 25/22/25
f 16/11/12 17/13/14 27/24/27 26/23/26
f 17/13/14 18/15/16 28/25/28 27/24/27
f 18/15/16 19/16/18 29/26/29 28/25/28
f 19/16/18 20/17/20 30/27/30 29/26/29
f 20/17/20 11/3/4 21/19/22 30/27/30
s 2
f 21/19/31 22/18/32 32/28/33 31/29/34
s 3
f 22/18/35 23/215/36 33/216/37 32/28/38
s 4
f 23/20/39 24/21/40 34/31/41 33/30/42
s 5
f 24/21/43 25/22/44 35/32/45 34/31/46
s 6
f 25/22/47 26/23/48 36/33/49 35/32/50
s 7
f 26/23/51 27/24/52 37/34/53 36/33/54
s 8
f 27/24/55 28/25/56 38/35/57 37/34/58
s 9
f 28/25/59 29/26/60 39/36/61 38/35/62
s 10
f 29/26/63 30/27/64 40/37/65 39/36/66
s 11
f 30/27/67 21/19/68 31/29/69 40/37/70
s 2
f 31/29/34 32/28/33 42/38/71 41/39/72
s 3
f 32/28/38 33/216/37 43/217/73 42/38/74
s 4
f 33/30/42 34/31/41 44/41/75 43/40/76
s 5
f 34/31/46 35/32/45 45/42/77 44/41/78
s 6
f 35/32/50 36/33/49 46/43/79 45/42/80
s 7
f 36/33/54 37/34/53 47/44/81 46/43/82
s 8
f 37/34/58 38/35/57 48/45/83 47/44/84
s 9
f 38/35/62 39/36/61 49/46/85 48/45/86
s 10
f 39/36/66 40/37/65 50/47/87 49/46/88
s 11
f 40/37/70 31/29/69 41/39/89 50/47/90
s 2
f 41/39/72 42/38/71 52/48/91 51/49/92
s 3
f 42/38/74 43/217/73 53/218/93 52/48/94
s 4
f 43/40/76 44/41/75 54/51/95 53/50/96
s 5
f 44/41/78 45/42/77 55/52/97 54/51/98
s 6
f 45/42/80 46/43/79 56/53/99 55/52/100
s 7
f 46/43/82 47/44/81 57/54/101 56/53/102
s 12
f 202/55/103 203/56/104 204/57/105 205/58/106
s 9
f 48/45/86 49/46/85 59/59/107 58/60/108
s 10
f 49/46/88 50/47/87 60/61/109 59/59/110
s 11
f 50/47/90 41/39/89 51/49/111 60/61/112
s 2
f 51/49/92 52/48/91 62/62/113 61/63/114
s 3
f 52/48/94 53/218/93 63/219/115 62/62/116
s 4
f 53/50/96 54/51/95 64/65/117 63/64/118
s 5
f 54/51/98 55/52/97 65/66/119 64/65/120
s 6
f 55/52/100 56/53/99 66/67/121 65/66/122
s 7
f 56/53/102 57/54/101 67/68/123 66/67/124
s 12
f 205/58/106 204/57/105 206/69/125 207/70/126
s 9
f 58/60/108 59/59/107 69/71/127 68/72/128
s 10
f 59/59/110 60/61/109 70/73/129 69/71/130
s 11
f 60/61/112 51/49/111 61/63/131 70/73/132
s 2
f 61/63/114 62/62/113 72/74/133 71/75/134
s 3
f 62/62/116 63/219/115 73/220/135 72/74/136
s 4
f 63/64/118 64/65/117 74/77/137 73/76/138
s 5
f 64/65/120 65/66/119 75/78/139 74/77/140
s 6
f 65/66/122 66/67/121 76/79/141 75/78/142
s 7
f 66/67/124 67/68/123 77/80/143 76/79/144
s 12
f 207/70/126 206/69/125 208/81/145 209/82/146
s 9
f 68/72/128 69/71/127 79/83/147 78/84/148
s 10
f 69/71/130 70/73/129 80/85/149 79/83/150
s 11
f 70/73/132 61/63/131 71/75/151 80/85/152
s 2
f 71/75/134 72/74/133 82/86/153 81/87/154
s 3
f 72/74/136 73/220/135 83/221/155 82/86/156
s 4
f 73/76/138 74/77/137 84/89/157 83/88/158
s 5
f 74/77/140 75/78/139 85/90/159 84/89/160
s 6
f 75/78/142 76/79/141 86/91/161 85/90/162
s 7
f 76/79/144 77/80/143 87/92/163 86/91/164
s 12
f 209/82/146 208/81/145 210/93/165 211/94/166
s 9
f 78/84/148 79/83/147 89/95/167 88/96/168
s 10
f 79/83/150 80/85/149 90/97/169 89/95/170
s 11
f 80/85/152 71/75/151 81/87/171 90/97/172
s 2
f 81/87/154 82/86/153 92/98/173 91/99/174
s 3
f 82/86/156 83/221/155 93/222/175 92/98/176
s 4
f 83/88/158 84/89/157 94/101/177 93/100/178
s 5
f 84/89/160 85/90/159 95/102/179 94/101/180
s 6
f 85/90/162 86/91/161 96/103/181 95/102/182
s 7
f 86/91/164 87/92/163 97/104/183 96/103/184
s 12
f 211/94/166 210/93/165 212/105/185 213/106/186
s 9
f 88/96/168 89/95/167 99/107/187 98/108/188
s 10
f 89/95/170 90/97/169 100/109/189 99/107/190
s 11
f 90/97/172 81/87/171 91/99/191 100/109/192
s 2
f 91/99/174 92/98/173 102/110/193 101/111/194
s 3
f 92/98/176 93/222/175 103/223/195 102/110/196
s 4
f 93/100/178 94/101/177 104/113/197 103/112/198
s 5
f 94/101/180 95/102/179 105/114/199 104/113/200
s 6
f 95/102/182 96/103/181 106/115/201 105/114/202
s 7
f 96/103/184 97/104/183 107/116/203 106/115/204
s 12
f 213/106/186 212/105/185 214/117/205 215/118/206
s 9
f 98/108/188 99/107/187 109/119/207 108/120/208
s 10
f 99/107/190 100/109/189 110/121/209 109/119/210
s 11
f 100/109/192 91/99/191 101/111/211 110/121/212
s 2
f 101/111/194 102/110/193 112/122/213 111/123/214
s 3
f 102/110/196 103/223/195 113/224/215 112/122/216
s 4
f 103/112/198 104/113/197 114/125/217 113/124/218
s 5
f 104/113/200 105/114/199 115/126/219 114/125/220
s 6
f 105/114/202 106/115/201 116/127/221 115/126/222
s 7
f 106/115/204 107/116/203 117/128/223 116/127/224
s 13
f 107/116/225 108/120/226 118/129/227 117/128/228
s 9
f 108/120/208 109/119/207 119/130/229 118/129/230
s 10
f 109/119/210 110/121/209 120/131/231 119/130/232
s 11
f 110/121/212 101/111/211 111/123/233 120/131/234
s 2
f 111/123/214 112/122/213 122/132/235 121/133/236
s 3
f 112/122/216 113/224/215 123/225/237 122/132/238
s 4
f 113/124/218 114/125/217 124/135/239 123/134/240
s 5
f 114/125/220 115/126/219 125/136/241 124/135/242
s 6
f 115/126/222 116/127/221 126/137/243 125/136/244
s 7
f 116/127/224 117/128/223 127/138/245 126/137/246
s 13
f 117/128/228 118/129/227 128/139/247 127/138/248
s 9
f 118/129/230 119/130/229 129/140/249 128/139/250
s 10
f 119/130/232 120/131/231 130/141/251 129/140/252
s 11
f 120/131/234 111/123/233 121/133/253 130/141/254
s 14
f 121/133/255 122/132/256 132/226/257 131/142/258
f 122/132/256 123/225/259 133/227/260 132/226/257
f 123/134/259 124/135/261 134/144/262 133/143/260
f 124/135/261 125/136/263 135/145/264 134/144/262
f 125/136/263 126/137/265 136/146/266 135/145/264
f 126/137/265 127/138/267 137/147/268 136/146/266
f 127/138/267 128/139/269 138/148/270 137/147/268
f 128/139/269 129/140/271 139/149/272 138/148/270
f 129/140/271 130/141/273 140/150/274 139/149/272
f 130/141/273 121/133/255 131/142/258 140/150/274
f 131/142/258 132/226/257 142/233/275 141/152/276
f 132/226/257 133/227/260 143/228/277 142/233/275
f 133/143/260 134/144/262 144/154/278 143/153/277
f 134/144/262 135/145/264 145/155/279 144/154/278
f 135/145/264 136/146/266 146/156/280 145/155/279
f 136/146/266 137/147/268 147/157/281 146/156/280
f 137/147/268 138/148/270 148/158/282 147/157/281
f 138/148/270 139/149/272 149/159/283 148/158/282
f 139/149/272 140/150/274 150/160/284 149/159/283
f 140/150/274 131/142/258 141/152/276 150/160/284
s 1
f 2/212/2 1/229/1 151/230/285
f 3/4/5 2/1/2 151/161/285
f 4/6/7 3/4/5 151/161/285
f 5/8/9 4/6/7 151/161/285
f 6/10/11 5/8/9 151/161/285
f 7/12/13 6/10/11 151/161/285
f 8/14/15 7/12/13 151/161/285
f 9/231/17 8/14/15 151/161/285
f 10/232/19 9/231/17 151/230/285
f 1/229/1 10/232/19 151/230/285
s off
f 141/152/286 142/233/287 153/234/288 152/163/289
f 142/151/290 143/153/291 154/164/292 153/162/293
f 143/153/294 144/154/295 155/165/296 154/164/297
f 144/154/298 145/155/299 156/166/300 155/165/301
f 145/155/302 146/156/303 157/167/304 156/166/305
f 146/156/306 147/157/307 158/168/308 157/167/309
f 147/157/310 148/158/311 159/169/312 158/168/313
f 148/158/314 149/159/315 160/170/316 159/169/317
f 149/159/318 150/160/319 161/171/320 160/170/321
f 150/160/322 141/152/323 152/163/324 161/171/325
f 152/163/326 153/234/327 163/172/328 162/173/329
f 153/234/330 154/235/331 164/174/332 163/172/333
f 154/235/334 155/236/335 165/237/336 164/174/337
f 155/165/338 156/166/339 166/176/340 165/175/341
f 156/166/342 157/167/343 167/177/344 166/176/345
f 157/167/346 158/168/347 168/178/348 167/177/349
f 158/168/350 159/169/351 169/179/352 168/178/353
f 159/169/354 160/170/355 170/180/356 169/179/357
f 160/170/358 161/171/359 171/181/360 170/180/361
f 161/171/362 152/163/363 162/173/364 171/181/365
f 162/173/366 163/172/367 173/182/368 172/183/369
f 163/172/370 164/174/371 174/184/372 173/182/373
f 164/174/374 165/237/375 175/185/376 174/184/377
f 165/237/378 166/238/379 176/186/380 175/185/381
f 166/238/382 167/239/383 177/240/384 176/186/385
f 167/177/386 168/178/387 178/188/388 177/187/389
f 168/178/390 169/179/391 179/189/392 178/188/393
f 169/179/394 170/180/395 180/190/396 179/189/397
f 170/180/398 171/181/399 181/191/400 180/190/401
f 171/181/402 162/173/403 172/183/404 181/191/405
f 172/183/406 173/182/407 183/192/408 182/193/409
f 173/182/410 174/184/411 184/194/412 183/192/413
f 174/184/414 175/185/415 185/195/416 184/194/417
f 175/185/418 176/186/419 186/196/420 185/195/421
f 176/186/422 177/187/423 187/197/424 186/196/425
f 177/187/426 178/188/427 188/198/428 187/197/429
f 178/188/430 179/189/431 189/199/432 188/198/433
f 179/189/434 180/190/435 190/200/436 189/199/437
f 180/190/438 181/191/439 191/201/440 190/200/441
f 181/191/442 172/183/443 182/193/444 191/201/445
f 182/193/446 183/192/447 193/202/448 192/203/449
f 183/192/450 184/194/451 194/204/452 193/202/453
f 184/194/454 185/195/455 195/205/456 194/204/457
f 185/195/458 186/196/459 196/206/460 195/205/461
f 186/196/462 187/197/463 197/207/464 196/206/465
f 187/197/466 188/198/467 198/208/468 197/207/469
f 188/198/470 189/199/471 199/209/472 198/208/473
f 189/199/474 190/200/475 200/210/476 199/209/477
f 190/200/478 191/201/479 201/211/480 200/210/481
f 191/201/482 182/193/483 192/203/484 201/211/485
f 47/44/486 48/45/487 203/56/488 202/55/489
f 48/45/490 58/60/491 204/57/492 203/56/493
f 57/54/494 47/44/495 202/55/496 205/58/497
f 58/60/498 68/72/499 206/69/500 204/57/501
f 67/68/502 57/54/503 205/58/504 207/70/505
f 68/72/506 78/84/507 208/81/508 206/69/509
f 77/80/510 67/68/511 207/70/512 209/82/513
f 78/84/514 88/96/515 210/93/516 208/81/517
f 87/92/518 77/80/519 209/82/520 211/94/521
f 88/96/522 98/108/523 212/105/524 210/93/525
f 97/104/526 87/92/527 211/94/528 213/106/529
f 98/108/530 108/120/531 214/117/532 212/105/533
f 108/120/534 107/116/535 215/118/536 214/117/537
f 107/116/538 97/104/539 213/106/540 215/118/541
